<?xml version="1.0" encoding="UTF-8"?>
<svg xmlns="http://www.w3.org/2000/svg" width="16" height="16" viewBox="0 0 16 16">
  <!-- Background -->
  <rect width="16" height="16" fill="none"/>
  
  <!-- Collections/Shelves Icon Style -->
  <!-- Main shelf structure -->
  <rect x="2" y="4" width="12" height="1" fill="currentColor"/>
  <rect x="2" y="8" width="12" height="1" fill="currentColor"/>
  <rect x="2" y="12" width="12" height="1" fill="currentColor"/>
  
  <!-- Book collections on shelves -->
  <rect x="3" y="2" width="1.5" height="2" fill="currentColor"/>
  <rect x="5" y="1.5" width="1.5" height="2.5" fill="currentColor"/>
  <rect x="7" y="2" width="1.5" height="2" fill="currentColor"/>
  <rect x="9" y="1.5" width="1.5" height="2.5" fill="currentColor"/>
  <rect x="11" y="2" width="1.5" height="2" fill="currentColor"/>
  
  <rect x="3" y="6" width="1.5" height="2" fill="currentColor"/>
  <rect x="5" y="5.5" width="1.5" height="2.5" fill="currentColor"/>
  <rect x="7" y="6" width="1.5" height="2" fill="currentColor"/>
  <rect x="9" y="5.5" width="1.5" height="2.5" fill="currentColor"/>
  <rect x="11" y="6" width="1.5" height="2" fill="currentColor"/>
  
  <rect x="3" y="10" width="1.5" height="2" fill="currentColor"/>
  <rect x="5" y="9.5" width="1.5" height="2.5" fill="currentColor"/>
  <rect x="7" y="10" width="1.5" height="2" fill="currentColor"/>
  <rect x="9" y="9.5" width="1.5" height="2.5" fill="currentColor"/>
  <rect x="11" y="10" width="1.5" height="2" fill="currentColor"/>
</svg>