<?xml version="1.0" encoding="UTF-8"?>
<svg xmlns="http://www.w3.org/2000/svg" width="16" height="16" viewBox="0 0 16 16">
  <!-- Background -->
  <rect width="16" height="16" fill="#1a1a1a"/>
  
  <!-- Collections/Shelves Icon Style -->
  <!-- Main shelf structure -->
  <rect x="2" y="4" width="12" height="1" fill="#e5a00d"/>
  <rect x="2" y="8" width="12" height="1" fill="#e5a00d"/>
  <rect x="2" y="12" width="12" height="1" fill="#e5a00d"/>
  
  <!-- Book collections on shelves -->
  <rect x="3" y="2" width="1.5" height="2" fill="#4caf50"/>
  <rect x="5" y="1.5" width="1.5" height="2.5" fill="#2196f3"/>
  <rect x="7" y="2" width="1.5" height="2" fill="#f44336"/>
  <rect x="9" y="1.5" width="1.5" height="2.5" fill="#9c27b0"/>
  <rect x="11" y="2" width="1.5" height="2" fill="#ff9800"/>
  
  <rect x="3" y="6" width="1.5" height="2" fill="#795548"/>
  <rect x="5" y="5.5" width="1.5" height="2.5" fill="#3f51b5"/>
  <rect x="7" y="6" width="1.5" height="2" fill="#e91e63"/>
  <rect x="9" y="5.5" width="1.5" height="2.5" fill="#00bcd4"/>
  <rect x="11" y="6" width="1.5" height="2" fill="#8bc34a"/>
  
  <rect x="3" y="10" width="1.5" height="2" fill="#009688"/>
  <rect x="5" y="9.5" width="1.5" height="2.5" fill="#673ab7"/>
  <rect x="7" y="10" width="1.5" height="2" fill="#cddc39"/>
  <rect x="9" y="9.5" width="1.5" height="2.5" fill="#ff5722"/>
  <rect x="11" y="10" width="1.5" height="2" fill="#757575"/>
</svg>
</svg>