<?xml version="1.0" encoding="UTF-8"?>
<svg xmlns="http://www.w3.org/2000/svg" width="16" height="16" viewBox="0 0 16 16">
  <!-- Background -->
  <rect width="16" height="16" fill="#1a1a1a"/>
  
  <!-- Shelves -->
  <rect x="1" y="4" width="14" height="1" fill="#e5a00d"/>
  <rect x="1" y="8" width="14" height="1" fill="#e5a00d"/>
  <rect x="1" y="12" width="14" height="1" fill="#e5a00d"/>
  
  <!-- Books -->
  <rect x="2" y="2" width="1.5" height="2" fill="#4caf50"/>
  <rect x="4" y="1.5" width="1.5" height="2.5" fill="#2196f3"/>
  <rect x="6" y="2" width="1.5" height="2" fill="#f44336"/>
  <rect x="8" y="1.5" width="1.5" height="2.5" fill="#9c27b0"/>
  <rect x="10" y="2" width="1.5" height="2" fill="#ff9800"/>
  <rect x="12" y="1.5" width="2" height="2.5" fill="#607d8b"/>
  
  <rect x="2" y="6" width="2" height="2" fill="#795548"/>
  <rect x="5" y="5.5" width="1.5" height="2.5" fill="#3f51b5"/>
  <rect x="7" y="6" width="1.5" height="2" fill="#e91e63"/>
  <rect x="9" y="5.5" width="1.5" height="2.5" fill="#00bcd4"/>
  <rect x="11" y="6" width="1.5" height="2" fill="#8bc34a"/>
  <rect x="13" y="5.5" width="1.5" height="2.5" fill="#ffc107"/>
  
  <rect x="2" y="10" width="1.5" height="2" fill="#009688"/>
  <rect x="4" y="9.5" width="2" height="2.5" fill="#673ab7"/>
  <rect x="7" y="10" width="1.5" height="2" fill="#cddc39"/>
  <rect x="9" y="9.5" width="1.5" height="2.5" fill="#ff5722"/>
  <rect x="11" y="10" width="2" height="2" fill="#757575"/>
  <rect x="13.5" y="9.5" width="1" height="2.5" fill="#37474f"/>
</svg>